# xmcd
#
# Track frame offsets: 
#        183
#        13193
#        24888
#        37683
#        49335
#        64643
#        77795
#        89848
#        96810
#        110390
#        124115
#        136908
#        149743
#        164510
#        177560
#        189423
#        200078
#        211073
#        223880
#        235798
#        251085
#        262590
#        274530
#        286780
#
# Disc length: 4001 seconds
#
# Revision: 2
# Processed by: cddbd v1.5.1PL0 Copyright (c) Steve Scherf et al.
# Submitted via: ExactAudioCopy v0.90b4
#
DISCID=5d0f9f18
DTITLE=Sonny Boy Williamson II - The Chess Years [Charly] [CD1]
DYEAR=1991
DGENRE=Blues
TTITLE0=Work With Me
TTITLE1=Don't Start Me Talkin'
TTITLE2=All My Love In Vain
TTITLE3=Good Evening Everybody
TTITLE4=You Killing Me (On My Feet)
TTITLE5=Let Me Explain
TTITLE6=I Know What Love Is All About
TTITLE7=I Wonder Why
TTITLE8=Your Imagination
TTITLE9=Don't Lose Your Eye
TTITLE10=Keep It To Yourself
TTITLE11=Please Forgive
TTITLE12=The Key (To Your Door)
TTITLE13=Have You Ever Been In Love
TTITLE14=Hurts Me So Much
TTITLE15=Fattening Frogs For Snakes
TTITLE16=I Don't Know
TTITLE17=Like Wolf
TTITLE18=This Is My Apartment
TTITLE19=Cross My Heart
TTITLE20=Born Blind
TTITLE21=Ninety Nine
TTITLE22=Dissatisfied
TTITLE23=Unseen Eye
EXTD=
EXTT0=
EXTT1=
EXTT2=
EXTT3=
EXTT4=
EXTT5=
EXTT6=
EXTT7=
EXTT8=
EXTT9=
EXTT10=
EXTT11=
EXTT12=
EXTT13=
EXTT14=
EXTT15=
EXTT16=
EXTT17=
EXTT18=
EXTT19=
EXTT20=
EXTT21=
EXTT22=
EXTT23=
PLAYORDER=
